<?xml version="1.0" encoding="UTF-8" standalone="no"?>
<svg id="svg1" version="1.1" width="75.379900" height="26.464900" viewBox="268.000 382.535 75.380 26.465" xmlns="http://www.w3.org/2000/svg">
 <g id="g1">
   <path id="path1"
     d="M 277.038,390.467 V 401.471 H 285.189 V 399.611 H 279.254 V 397.180 H 284.773 V 395.319 H 279.254 V 392.328 H 285.403 V 390.469 H 277.038 V 390.467 V 390.467"
     style="fill:rgb(0,0,0); stroke:none; fill-rule:nonzero;"
     transform="matrix(1.000000 0.000000 0.000000 -1.000000 0.000000 791.535100)"
   />
   <path id="path2"
     d="M 294.310,394.528 L 296.464,393.864 C 296.132,392.649 295.585,391.750 294.817,391.164 C 294.050,390.573 293.077,390.285 291.898,390.285 C 290.437,390.285 289.237,390.782 288.298,391.778 C 287.356,392.778 286.888,394.147 286.888,395.877 C 286.888,397.712 287.356,399.133 288.300,400.150 C 289.251,401.164 290.492,401.671 292.029,401.671 C 293.374,401.671 294.469,401.275 295.309,400.475 C 295.807,400.008 296.186,399.328 296.432,398.449 L 294.232,397.922 C 294.100,398.488 293.831,398.942 293.422,399.272 C 293.007,399.598 292.509,399.766 291.922,399.766 C 291.107,399.766 290.444,399.471 289.941,398.889 C 289.436,398.303 289.182,397.354 289.182,396.043 C 289.182,394.653 289.432,393.664 289.932,393.073 C 290.430,392.481 291.077,392.187 291.877,392.187 C 292.469,392.187 292.973,392.375 293.397,392.750 C 293.821,393.127 294.129,393.720 294.310,394.528 V 394.528"
     style="fill:rgb(0,0,0); stroke:none; fill-rule:nonzero;"
     transform="matrix(1.000000 0.000000 0.000000 -1.000000 0.000000 791.535100)"
   />
   <path id="path3"
     d="M 309.513,396.807 H 311.155 C 312.217,396.807 312.881,396.850 313.146,396.941 C 313.412,397.029 313.618,397.186 313.765,397.404 C 313.917,397.627 313.993,397.906 313.993,398.238 C 313.993,398.605 313.896,398.912 313.696,399.139 C 313.500,399.367 313.220,399.509 312.860,399.572 C 312.681,399.596 312.144,399.611 311.246,399.611 H 309.514 V 396.807 H 309.513"
     style="fill:rgb(0,0,0); stroke:none; fill-rule:nonzero;"
     transform="matrix(1.000000 0.000000 0.000000 -1.000000 0.000000 791.535100)"
   />
   <path id="path4"
     d="M 307.294,390.467 V 401.471 H 311.968 C 313.144,401.471 313.992,401.368 314.526,401.169 C 315.062,400.975 315.489,400.620 315.806,400.116 C 316.126,399.610 316.282,399.032 316.282,398.380 C 316.282,397.555 316.045,396.872 315.560,396.331 C 315.081,395.796 314.358,395.455 313.396,395.313 C 313.876,395.037 314.269,394.730 314.580,394.395 C 314.893,394.061 315.312,393.463 315.844,392.609 L 317.188,390.467 H 314.527 L 312.934,392.869 C 312.361,393.719 311.969,394.254 311.760,394.473 C 311.549,394.699 311.323,394.848 311.092,394.932 C 310.854,395.014 310.479,395.055 309.967,395.055 H 309.514 V 390.467 H 307.294 V 390.467"
     style="fill:rgb(0,0,0); stroke:none; fill-rule:nonzero;"
     transform="matrix(1.000000 0.000000 0.000000 -1.000000 0.000000 791.535100)"
   />
   <path id="path5"
     d="M 318.400,390.467 V 401.471 H 326.551 V 399.611 H 320.616 V 397.180 H 326.133 V 395.319 H 320.616 V 392.328 H 326.769 V 390.469 H 318.400 V 390.467 V 390.467"
     style="fill:rgb(0,0,0); stroke:none; fill-rule:nonzero;"
     transform="matrix(1.000000 0.000000 0.000000 -1.000000 0.000000 791.535100)"
   />
   <path id="path6"
     d="M 330.870,399.611 V 396.482 H 332.083 C 332.954,396.482 333.538,396.533 333.831,396.650 C 334.126,396.770 334.354,396.951 334.525,397.195 C 334.691,397.439 334.775,397.723 334.775,398.053 C 334.775,398.452 334.658,398.784 334.422,399.042 C 334.188,399.307 333.889,399.468 333.530,399.534 C 333.267,399.583 332.737,399.610 331.939,399.610 H 330.870 V 399.611"
     style="fill:rgb(0,0,0); stroke:none; fill-rule:nonzero;"
     transform="matrix(1.000000 0.000000 0.000000 -1.000000 0.000000 791.535100)"
   />
   <path id="path7"
     d="M 328.654,390.467 V 401.471 H 332.216 C 333.562,401.471 334.439,401.413 334.851,401.300 C 335.481,401.139 336.005,400.782 336.431,400.227 C 336.856,399.673 337.069,398.960 337.069,398.085 C 337.069,397.409 336.948,396.841 336.703,396.383 C 336.461,395.922 336.144,395.563 335.767,395.299 C 335.392,395.037 335.009,394.861 334.618,394.778 C 334.088,394.674 333.323,394.625 332.317,394.625 H 330.871 V 390.469 H 328.654 V 390.467 V 390.467"
     style="fill:rgb(0,0,0); stroke:none; fill-rule:nonzero;"
     transform="matrix(1.000000 0.000000 0.000000 -1.000000 0.000000 791.535100)"
   />
   <path id="path8"
     d="M 339.079,405.271 C 339.079,403.751 339.079,387.782 339.079,386.263 C 336.891,386.263 274.490,386.263 272.300,386.263 C 272.300,387.782 272.300,403.751 272.300,405.271 C 274.490,405.271 336.892,405.271 339.079,405.271 V 405.271"
     style="fill:rgb(0,0,0); stroke:none; fill-rule:nonzero;"
     transform="matrix(1.000000 0.000000 0.000000 -1.000000 0.000000 791.535100)"
   />
   <path id="path9"
     d="M 340.230,407.000 H 270.000 V 384.535 H 341.380 V 407.000 H 340.230 V 407.000"
     style="fill:rgb(0,0,0); stroke:none; fill-rule:nonzero;"
     transform="matrix(1.000000 0.000000 0.000000 -1.000000 0.000000 791.535100)"
   />
   <path id="path10"
     d="M 301.498,406.914 H 303.879 V 385.727 H 301.498 V 406.914 V 406.914"
     style="fill:rgb(0,0,0); stroke:none; fill-rule:nonzero;"
     transform="matrix(1.000000 0.000000 0.000000 -1.000000 0.000000 791.535100)"
   />
 </g>
</svg>
