<?xml version="1.0" encoding="UTF-8"?>
<svg xmlns="http://www.w3.org/2000/svg" xmlns:xlink="http://www.w3.org/1999/xlink" viewBox="0.000000 -1.000000 22.000000 21.000000" width="22.0pt" height="21.0pt">
  <defs>
    <clipPath id="clip1">
      <path d="M 0.000000 21.000000 L 22.000000 21.000000 L 22.000000 0.000000 L 0.000000 0.000000 Z" />
    </clipPath>
    <clipPath id="clip2">
      <path d="M 0.000000 0.693000 L 22.000000 0.693000 L 22.000000 20.693000 L 0.000000 20.693000 Z" />
    </clipPath>
  </defs>
  <path d="M 21.207000 17.778961 L 11.957000 1.415961 C 11.707000 0.965961 11.238000 0.692961 10.730000 0.692961 C 10.223000 0.692961 9.750000 0.965961 9.508000 1.415961 L 0.184000 17.903961 C 0.063000 18.118961 0.000000 18.356961 0.000000 18.594961 C 0.000000 19.368961 0.629000 20.001961 1.406000 20.001961 L 20.059000 20.001961 C 20.836000 20.001961 21.465000 19.368961 21.465000 18.594961 C 21.465000 18.305961 21.379000 18.024961 21.207000 17.778961" fill="rgb(0,0,0)"  stroke="none" clip-path="url(#clip2)" />
  <path d="M 9.324000 6.645961" fill="rgb(0,0,0)"  stroke="none" clip-path="url(#clip2)" />
</svg>
