<?xml version="1.0" encoding="UTF-8"?><svg xmlns="http://www.w3.org/2000/svg" xmlns:xlink="http://www.w3.org/1999/xlink" contentScriptType="text/ecmascript" width="200.00000" zoomAndPan="magnify" contentStyleType="text/css" viewBox="0.00000 0.00000 200.00000 200.00000" height="200.00000" preserveAspectRatio="xMidYMid meet" version="1.1">
<path fill="none" stroke-width="1.0" id="path-1743802770863-0" d="M 140.0 100.0 C 140.0 122.1 122.1 140.0 100.0 140.0 C 77.9 140.0 60.0 122.1 60.0 100.0 C 60.0 77.9 77.9 60.0 100.0 60.0 C 122.1 60.0 140.0 77.9 140.0 100.0 " stroke="#000000"/>
<path fill="none" stroke-width="1.0" id="path-1743802770905-1" d="M 130.0 100.0 C 130.0 116.6 116.6 130.0 100.0 130.0 " stroke="#000000"/>
<path fill="none" stroke-width="1.0" id="path-1743802770937-2" d="M 120.0 100.0 C 120.0 111.0 111.0 120.0 100.0 120.0 C 89.0 120.0 80.0 111.0 80.0 100.0 " stroke="#000000"/>
<path fill="none" stroke-width="1.0" id="path-1743802770957-3" d="M 110.0 100.0 C 110.0 105.5 105.5 110.0 100.0 110.0 C 94.5 110.0 90.0 105.5 90.0 100.0 C 90.0 94.5 94.5 90.0 100.0 90.0 " stroke="#000000"/>
<path fill="none" stroke-width="1.0" id="path-1743802770985-4" d="M 135.4 135.4 C 126.0 144.7 113.3 150.0 100.0 150.0 " stroke="#000000"/>
<path fill="none" stroke-width="1.0" id="path-1743802770985-5" d="M 64.6 135.4 C 45.1 115.8 45.1 84.2 64.6 64.6 " stroke="#000000"/>
<path fill="none" stroke-width="1.0" id="path-1743802771016-6" d="M 100.0 50.0 C 127.6 50.0 150.0 72.4 150.0 100.0 " stroke="#000000"/>
<path fill="#000000" id="path-1743802771047-0" d="M 102.0 100.0 C 102.0 101.1 101.1 102.0 100.0 102.0 C 98.9 102.0 98.0 101.1 98.0 100.0 C 98.0 98.9 98.9 98.0 100.0 98.0 C 101.1 98.0 102.0 98.9 102.0 100.0 Z" fill-rule="nonzero" stroke="none"/>
<path fill="none" stroke-width="1.0" id="path-1743802771048-7" d="M 100.0 100.0 L 140.0 100.0 " stroke="#000000"/>
<path fill="none" stroke-width="1.0" id="path-1743802771071-8" d="M 100.0 100.0 L 100.0 140.0 " stroke="#000000"/>
<path fill="none" stroke-width="1.0" id="path-1743802771081-9" d="M 100.0 100.0 L 60.0 100.0 " stroke="#000000"/>
<path fill="none" stroke-width="1.0" id="path-1743802771093-10" d="M 100.0 100.0 L 100.0 60.0 " stroke="#000000"/>
</svg>
