<?xml version="1.0" encoding="UTF-8"?><svg xmlns="http://www.w3.org/2000/svg" xmlns:xlink="http://www.w3.org/1999/xlink" contentScriptType="text/ecmascript" width="200.00000" zoomAndPan="magnify" contentStyleType="text/css" viewBox="0.00000 0.00000 200.00000 200.00000" height="200.00000" preserveAspectRatio="xMidYMid meet" version="1.1">
<path fill="none" stroke-width="1.0" id="path-1743802761889-0" d="M 50.0 100.0 C 50.0 100.0 80.0 150.0 150.0 100.0 " stroke="#000000"/>
<path fill="none" stroke-width="1.0" id="path-1743802761922-1" d="M 50.0 50.0 C 50.0 50.0 80.0 0.0 150.0 50.0 " stroke="#000000"/>
<path fill="#000000" id="path-1743802761955-0" d="M 52.0 100.0 C 52.0 101.1 51.1 102.0 50.0 102.0 C 48.9 102.0 48.0 101.1 48.0 100.0 C 48.0 98.9 48.9 98.0 50.0 98.0 C 51.1 98.0 52.0 98.9 52.0 100.0 Z" fill-rule="nonzero" stroke="none"/>
<path fill="#000000" id="path-1743802762001-1" d="M 82.0 150.0 C 82.0 151.1 81.1 152.0 80.0 152.0 C 78.9 152.0 78.0 151.1 78.0 150.0 C 78.0 148.9 78.9 148.0 80.0 148.0 C 81.1 148.0 82.0 148.9 82.0 150.0 Z" fill-rule="nonzero" stroke="none"/>
<path fill="#000000" id="path-1743802762017-2" d="M 52.0 50.0 C 52.0 51.1 51.1 52.0 50.0 52.0 C 48.9 52.0 48.0 51.1 48.0 50.0 C 48.0 48.9 48.9 48.0 50.0 48.0 C 51.1 48.0 52.0 48.9 52.0 50.0 Z" fill-rule="nonzero" stroke="none"/>
<path fill="#000000" id="path-1743802762047-3" d="M 82.0 0.0 C 82.0 1.1 81.1 2.0 80.0 2.0 C 78.9 2.0 78.0 1.1 78.0 0.0 C 78.0 -1.1 78.9 -2.0 80.0 -2.0 C 81.1 -2.0 82.0 -1.1 82.0 -0.0 Z" fill-rule="nonzero" stroke="none"/>
<path fill="#000000" id="path-1743802762063-4" d="M 53.0 100.0 C 53.0 101.7 51.7 103.0 50.0 103.0 C 48.3 103.0 47.0 101.7 47.0 100.0 C 47.0 98.3 48.3 97.0 50.0 97.0 C 51.7 97.0 53.0 98.3 53.0 100.0 Z" fill-rule="nonzero" stroke="none"/>
<path fill="#000000" id="path-1743802762079-5" d="M 153.0 100.0 C 153.0 101.7 151.7 103.0 150.0 103.0 C 148.3 103.0 147.0 101.7 147.0 100.0 C 147.0 98.3 148.3 97.0 150.0 97.0 C 151.7 97.0 153.0 98.3 153.0 100.0 Z" fill-rule="nonzero" stroke="none"/>
<path fill="#000000" id="path-1743802762079-6" d="M 53.0 50.0 C 53.0 51.7 51.7 53.0 50.0 53.0 C 48.3 53.0 47.0 51.7 47.0 50.0 C 47.0 48.3 48.3 47.0 50.0 47.0 C 51.7 47.0 53.0 48.3 53.0 50.0 Z" fill-rule="nonzero" stroke="none"/>
<path fill="#000000" id="path-1743802762094-7" d="M 153.0 50.0 C 153.0 51.7 151.7 53.0 150.0 53.0 C 148.3 53.0 147.0 51.7 147.0 50.0 C 147.0 48.3 148.3 47.0 150.0 47.0 C 151.7 47.0 153.0 48.3 153.0 50.0 Z" fill-rule="nonzero" stroke="none"/>
<path fill="none" stroke-width="1.0" id="path-1743802762110-2" d="M 50.0 100.0 L 80.0 150.0 L 150.0 100.0 " stroke="#000000"/>
<path fill="none" stroke-width="1.0" id="path-1743802762110-3" d="M 50.0 50.0 L 80.0 0.0 L 150.0 50.0 " stroke="#000000"/>
</svg>
